IKResults
version=1
nRows=5
nColumns=63
inDegrees=yes

Units are S.I. units (second, meters, Newtons, ...)
If the header above contains a line with 'inDegrees', this indicates whether rotational values are in degrees (yes) or radians (no).

endheader
time	pelvis_tilt	pelvis_list	pelvis_rotation	pelvis_tx	pelvis_ty	pelvis_tz	hip_flexion_r	hip_adduction_r	hip_rotation_r	knee_angle_r	knee_angle_r_beta	ankle_angle_r	subtalar_angle_r	mtp_angle_r	hip_flexion_l	hip_adduction_l	hip_rotation_l	knee_angle_l	knee_angle_l_beta	ankle_angle_l	subtalar_angle_l	mtp_angle_l	L5_S1_Flex_Ext	L5_S1_Lat_Bending	L5_S1_axial_rotation	L4_L5_Flex_Ext	L4_L5_Lat_Bending	L4_L5_axial_rotation	L3_L4_Flex_Ext	L3_L4_Lat_Bending	L3_L4_axial_rotation	L2_L3_Flex_Ext	L2_L3_Lat_Bending	L2_L3_axial_rotation	L1_L2_Flex_Ext	L1_L2_Lat_Bending	L1_L2_axial_rotation	L1_T12_Flex_Ext	L1_T12_Lat_Bending	L1_T12_axial_rotation	Abs_r3	Abs_r2	Abs_r1	Abs_t1	Abs_t2	neck_flexion	neck_bending	neck_rotation	arm_flex_r	arm_add_r	arm_rot_r	elbow_flex_r	pro_sup_r	wrist_flex_r	wrist_dev_r	arm_flex_l	arm_add_l	arm_rot_l	elbow_flex_l	pro_sup_l	wrist_flex_l	wrist_dev_l
      0.03333333	     -8.87016551	     -0.89873617	      1.05912761	      0.00676758	      0.93909531	     -0.24413093	      5.92959144	     -4.00680231	     -3.41792537	      7.17802603	      0.12528019	     11.43846856	    -10.32127464	      0.00000000	      6.15811795	     -7.58375113	    -16.42806256	      7.48959819	      0.13071815	     12.04827230	     -7.85588642	      0.00000000	      1.06083169	      0.06569967	      0.16683360	      1.97007053	      0.08738055	      0.17726070	      1.74284038	      0.15974217	      0.17726070	      1.21242454	      0.15974217	      0.14597940	      0.98508831	      0.13397476	      0.13555230	      0.60615923	      0.10176878	      0.12512520	      7.57741466	      0.74320775	      0.92787846	      0.00000000	      0.00000000	     25.95026489	     -2.02423028	     -6.57133149	    -10.51239103	    -10.52879258	     -2.58626943	     22.26511630	     89.99559364	      0.00000000	      0.00000000	     -7.79545848	    -12.03899147	     -2.11206116	     30.25145635	     89.99559364	      0.00000000	      0.00000000
      0.06666667	     -8.86690738	     -0.89897781	      1.06106194	      0.00667168	      0.93911197	     -0.24413730	      5.93082930	     -4.00718024	     -3.41758478	      7.18891156	      0.12547018	     11.44010871	    -10.31028717	      0.00000000	      6.16376382	     -7.58507850	    -16.42464803	      7.49864249	      0.13087600	     12.04842108	     -7.84856922	      0.00000000	      1.05923892	      0.06558374	      0.16793296	      1.96711260	      0.08722638	      0.17842877	      1.74022362	      0.15946032	      0.17842877	      1.21060416	      0.15946032	      0.14694134	      0.98360926	      0.13373837	      0.13644553	      0.60524912	      0.10158922	      0.12594972	      7.56603768	      0.74189643	      0.93399274	      0.00000000	      0.00000000	     25.89707594	     -2.02375420	     -6.57047281	    -10.52054242	    -10.53861226	     -2.58863861	     22.26950189	     89.99559364	      0.00000000	      0.00000000	     -7.81028395	    -12.04955854	     -2.11238825	     30.25371745	     89.99559364	      0.00000000	      0.00000000
      0.10000000	     -8.86041008	     -0.90036900	      1.06629525	      0.00648841	      0.93913079	     -0.24414586	      5.93034055	     -4.00576294	     -3.41732731	      7.20675955	      0.12578168	     11.44579905	    -10.29377139	      0.00000000	      6.17454023	     -7.58729347	    -16.41981188	      7.51267495	      0.13112091	     12.04858851	     -7.83746053	      0.00000000	      1.05575119	      0.06553183	      0.17055824	      1.96063554	      0.08715733	      0.18121813	      1.73449364	      0.15933409	      0.18121813	      1.20661804	      0.15933409	      0.14923846	      0.98037056	      0.13363251	      0.13857857	      0.60325623	      0.10150880	      0.12791868	      7.54112520	      0.74130916	      0.94859375	      0.00000000	      0.00000000	     25.81888702	     -2.02275473	     -6.56971316	    -10.54117762	    -10.56816341	     -2.59479430	     22.27440920	     89.99559364	      0.00000000	      0.00000000	     -7.84445482	    -12.08543569	     -2.11717354	     30.25546275	     89.99559364	      0.00000000	      0.00000000
      0.13333333	     -8.90650429	     -0.93520099	      1.08557859	      0.00644949	      0.93904655	     -0.24403522	      5.97401736	     -3.95574567	     -3.43952882	      7.23567736	      0.12628639	     11.55875902	    -10.33435422	      0.00000000	      6.22275871	     -7.63065448	    -16.46892671	      7.51190381	      0.13110745	     12.06304666	     -7.82233123	      0.00000000	      1.06254639	      0.06660678	      0.17365179	      1.97325490	      0.08858702	      0.18450503	      1.74565746	      0.16194773	      0.18450503	      1.21438427	      0.16194773	      0.15194532	      0.98668058	      0.13582455	      0.14109208	      0.60713901	      0.10317391	      0.13023885	      7.58966259	      0.75346926	      0.96579918	      0.00000000	      0.00000000	     25.91356057	     -1.96262667	     -6.63604095	    -10.55793298	    -10.57716976	     -2.66759413	     22.07277498	     89.99559364	      0.00000000	      0.00000000	     -7.82437145	    -12.15235688	     -2.10000190	     29.99736472	     89.99559364	      0.00000000	      0.00000000
      0.16666667	     -8.89353891	     -0.93897284	      1.09364610	      0.00614501	      0.93909618	     -0.24407837	      5.97310995	     -3.95454301	     -3.43793127	      7.26024637	      0.12671520	     11.55969915	    -10.31305841	      0.00000000	      6.23458604	     -7.63506642	    -16.46228001	      7.53246975	      0.13146640	     12.06037823	     -7.80735574	      0.00000000	      1.05475825	      0.06670162	      0.17755409	      1.95879155	      0.08871316	      0.18865122	      1.73286233	      0.16217833	      0.18865122	      1.20548321	      0.16217833	      0.15535983	      0.97944851	      0.13601795	      0.14426270	      0.60268887	      0.10332081	      0.13316557	      7.53403273	      0.75454210	      0.98750257	      0.00000000	      0.00000000	     25.81348866	     -1.96111811	     -6.63594457	    -10.59542499	    -10.62501163	     -2.67814682	     22.07679427	     89.99559364	      0.00000000	      0.00000000	     -7.88345497	    -12.20975798	     -2.10823764	     29.99717140	     89.99559364	      0.00000000	      0.00000000
